<svg width="24" height="24" viewBox="0 0 24 24" fill="none" xmlns="http://www.w3.org/2000/svg">
  <path fill-rule="evenodd" clip-rule="evenodd" d="M17 11.5C17 11.6705 16.9342 11.834 16.817 11.9545C16.6998 12.075 16.5408 12.1427 16.3751 12.1427L9.13463 12.1427L11.8181 14.9014C11.8762 14.9611 11.9223 15.0321 11.9537 15.1102C11.9852 15.1882 12.0013 15.2719 12.0013 15.3564C12.0013 15.441 11.9852 15.5246 11.9537 15.6027C11.9223 15.6808 11.8762 15.7517 11.8181 15.8115C11.76 15.8713 11.691 15.9187 11.6151 15.951C11.5392 15.9834 11.4578 16 11.3756 16C11.2935 16 11.2121 15.9834 11.1362 15.951C11.0603 15.9187 10.9913 15.8713 10.9332 15.8115L7.1836 11.9551C7.1254 11.8954 7.07923 11.8244 7.04772 11.7463C7.01622 11.6683 7 11.5845 7 11.5C7 11.4155 7.01622 11.3317 7.04772 11.2537C7.07923 11.1756 7.1254 11.1046 7.1836 11.0449L10.9332 7.18849C11.0505 7.0678 11.2097 7 11.3756 7C11.5416 7 11.7007 7.0678 11.8181 7.18849C11.9354 7.30918 12.0013 7.47287 12.0013 7.64355C12.0013 7.81423 11.9354 7.97792 11.8181 8.09861L9.13463 10.8573L16.3751 10.8573C16.5408 10.8573 16.6998 10.925 16.817 11.0455C16.9342 11.1661 17 11.3295 17 11.5Z" fill="white"/>
</svg>
