<svg width="20" height="20" viewBox="0 0 20 20" fill="none" xmlns="http://www.w3.org/2000/svg">
  <path d="M5.83333 15.0001C4.91666 15.0001 4.17499 15.7501 4.17499 16.6668C4.17499 17.5834 4.91666 18.3334 5.83333 18.3334C6.74999 18.3334 7.49999 17.5834 7.49999 16.6668C7.49999 15.7501 6.74999 15.0001 5.83333 15.0001ZM0.833328 1.66675V3.33342H2.49999L5.49999 9.65842L4.37499 11.7001C4.24166 11.9334 4.16666 12.2084 4.16666 12.5001C4.16666 13.4167 4.91666 14.1667 5.83333 14.1667H15.8333V12.5001H6.18333C6.06666 12.5001 5.97499 12.4084 5.97499 12.2917L5.99999 12.1918L6.75 10.8334H12.9583C13.5833 10.8334 14.1333 10.4917 14.4167 9.97508L17.4 4.56675C17.4667 4.45008 17.5 4.30842 17.5 4.16675C17.5 3.70842 17.125 3.33342 16.6667 3.33342H4.34166L3.55833 1.66675H0.833328ZM14.1667 15.0001C13.25 15.0001 12.5083 15.7501 12.5083 16.6668C12.5083 17.5834 13.25 18.3334 14.1667 18.3334C15.0833 18.3334 15.8333 17.5834 15.8333 16.6668C15.8333 15.7501 15.0833 15.0001 14.1667 15.0001Z" fill="white"/>
</svg>
