<svg width="28" height="27" viewBox="0 0 28 27" fill="none" xmlns="http://www.w3.org/2000/svg">
  <path d="M5.00004 6.01754L0.946289 1.96504L2.71504 0.196289L6.76754 4.25004H25.82C26.0149 4.25003 26.207 4.29556 26.3811 4.383C26.5552 4.47044 26.7065 4.59737 26.8228 4.75366C26.9392 4.90995 27.0174 5.09127 27.0512 5.28315C27.085 5.47503 27.0735 5.67215 27.0175 5.85879L24.0175 15.8588C23.9404 16.1164 23.7822 16.3422 23.5664 16.5028C23.3507 16.6634 23.089 16.7501 22.82 16.75H7.50004V19.25H21.25V21.75H6.25004C5.91852 21.75 5.60058 21.6183 5.36616 21.3839C5.13173 21.1495 5.00004 20.8316 5.00004 20.5V6.01754ZM7.50004 6.75004V14.25H21.89L24.14 6.75004H7.50004ZM6.87504 26.75C6.37776 26.75 5.90084 26.5525 5.54921 26.2009C5.19758 25.8492 5.00004 25.3723 5.00004 24.875C5.00004 24.3778 5.19758 23.9008 5.54921 23.5492C5.90084 23.1976 6.37776 23 6.87504 23C7.37232 23 7.84923 23.1976 8.20086 23.5492C8.55249 23.9008 8.75004 24.3778 8.75004 24.875C8.75004 25.3723 8.55249 25.8492 8.20086 26.2009C7.84923 26.5525 7.37232 26.75 6.87504 26.75ZM21.875 26.75C21.3778 26.75 20.9008 26.5525 20.5492 26.2009C20.1976 25.8492 20 25.3723 20 24.875C20 24.3778 20.1976 23.9008 20.5492 23.5492C20.9008 23.1976 21.3778 23 21.875 23C22.3723 23 22.8492 23.1976 23.2009 23.5492C23.5525 23.9008 23.75 24.3778 23.75 24.875C23.75 25.3723 23.5525 25.8492 23.2009 26.2009C22.8492 26.5525 22.3723 26.75 21.875 26.75Z" fill="white"/>
</svg>
