<svg width="36" height="36" viewBox="0 0 36 36" fill="none" xmlns="http://www.w3.org/2000/svg">
  <path d="M30.1816 26.8453C29.5184 25.2744 28.556 23.8475 27.348 22.6441C26.1437 21.4373 24.717 20.475 23.1468 19.8105C23.1328 19.8035 23.1187 19.8 23.1047 19.793C25.2949 18.2109 26.7187 15.634 26.7187 12.7266C26.7187 7.91016 22.8164 4.00781 18 4.00781C13.1836 4.00781 9.28131 7.91016 9.28131 12.7266C9.28131 15.634 10.7051 18.2109 12.8953 19.7965C12.8813 19.8035 12.8672 19.807 12.8532 19.8141C11.2782 20.4785 9.8649 21.4312 8.65202 22.6477C7.44514 23.852 6.4829 25.2786 5.81844 26.8488C5.16567 28.386 4.81362 30.0341 4.78134 31.7039C4.7804 31.7414 4.78698 31.7788 4.80069 31.8137C4.81441 31.8486 4.83498 31.8805 4.86119 31.9073C4.8874 31.9342 4.91872 31.9556 4.95331 31.9701C4.9879 31.9847 5.02505 31.9922 5.06259 31.9922H7.17195C7.32663 31.9922 7.44968 31.8691 7.4532 31.718C7.52351 29.0039 8.61334 26.4621 10.5399 24.5355C12.5332 22.5422 15.1805 21.4453 18 21.4453C20.8195 21.4453 23.4668 22.5422 25.4601 24.5355C27.3867 26.4621 28.4765 29.0039 28.5468 31.718C28.5503 31.8727 28.6734 31.9922 28.8281 31.9922H30.9374C30.9749 31.9922 31.0121 31.9847 31.0467 31.9701C31.0813 31.9556 31.1126 31.9342 31.1388 31.9073C31.165 31.8805 31.1856 31.8486 31.1993 31.8137C31.213 31.7788 31.2196 31.7414 31.2187 31.7039C31.1835 30.0234 30.8355 28.3887 30.1816 26.8453ZM18 18.7734C16.3863 18.7734 14.8676 18.1441 13.725 17.0016C12.5825 15.859 11.9532 14.3402 11.9532 12.7266C11.9532 11.1129 12.5825 9.59414 13.725 8.45156C14.8676 7.30898 16.3863 6.67969 18 6.67969C19.6137 6.67969 21.1324 7.30898 22.275 8.45156C23.4175 9.59414 24.0468 11.1129 24.0468 12.7266C24.0468 14.3402 23.4175 15.859 22.275 17.0016C21.1324 18.1441 19.6137 18.7734 18 18.7734Z" fill="#006DB3"/>
</svg>
