<svg width="18" height="16" viewBox="0 0 18 16" fill="none" xmlns="http://www.w3.org/2000/svg">
  <path d="M17.4182 5.63406L12.0222 4.90408L9.60999 0.352135C9.54411 0.227506 9.43572 0.126615 9.30183 0.0652895C8.96604 -0.0890138 8.55799 0.0395723 8.39009 0.352135L5.97791 4.90408L0.581865 5.63406C0.433096 5.65384 0.297079 5.71912 0.192941 5.81803C0.0670438 5.93848 -0.00233122 6.10053 5.98176e-05 6.26856C0.00245086 6.4366 0.0764123 6.59688 0.205692 6.71418L4.10981 10.2572L3.18744 15.2602C3.16581 15.3766 3.17965 15.4963 3.22738 15.6057C3.27511 15.7151 3.35483 15.8099 3.4575 15.8793C3.56016 15.9488 3.68166 15.99 3.80823 15.9984C3.9348 16.0068 4.06136 15.982 4.17356 15.9269L9.00004 13.5648L13.8265 15.9269C13.9583 15.9922 14.1113 16.0139 14.258 15.9902C14.6277 15.9308 14.8764 15.6044 14.8126 15.2602L13.8903 10.2572L17.7944 6.71418C17.9007 6.61724 17.9708 6.49064 17.992 6.35216C18.0494 6.00597 17.7901 5.68549 17.4182 5.63406Z" fill="#006DB3"/>
</svg>
