<svg width="24" height="24" viewBox="0 0 24 24" fill="none" xmlns="http://www.w3.org/2000/svg">
  <path d="M10 9.5C10.1326 9.5 10.2598 9.55268 10.3536 9.64645C10.4473 9.74021 10.5 9.86739 10.5 10V16C10.5 16.1326 10.4473 16.2598 10.3536 16.3536C10.2598 16.4473 10.1326 16.5 10 16.5C9.86739 16.5 9.74021 16.4473 9.64645 16.3536C9.55268 16.2598 9.5 16.1326 9.5 16V10C9.5 9.86739 9.55268 9.74021 9.64645 9.64645C9.74021 9.55268 9.86739 9.5 10 9.5ZM12.5 9.5C12.6326 9.5 12.7598 9.55268 12.8536 9.64645C12.9473 9.74021 13 9.86739 13 10V16C13 16.1326 12.9473 16.2598 12.8536 16.3536C12.7598 16.4473 12.6326 16.5 12.5 16.5C12.3674 16.5 12.2402 16.4473 12.1464 16.3536C12.0527 16.2598 12 16.1326 12 16V10C12 9.86739 12.0527 9.74021 12.1464 9.64645C12.2402 9.55268 12.3674 9.5 12.5 9.5ZM15.5 10C15.5 9.86739 15.4473 9.74021 15.3536 9.64645C15.2598 9.55268 15.1326 9.5 15 9.5C14.8674 9.5 14.7402 9.55268 14.6464 9.64645C14.5527 9.74021 14.5 9.86739 14.5 10V16C14.5 16.1326 14.5527 16.2598 14.6464 16.3536C14.7402 16.4473 14.8674 16.5 15 16.5C15.1326 16.5 15.2598 16.4473 15.3536 16.3536C15.4473 16.2598 15.5 16.1326 15.5 16V10Z" fill="white"/>
  <path fill-rule="evenodd" clip-rule="evenodd" d="M19 7C19 7.26522 18.8946 7.51957 18.7071 7.70711C18.5196 7.89464 18.2652 8 18 8H17.5V17C17.5 17.5304 17.2893 18.0391 16.9142 18.4142C16.5391 18.7893 16.0304 19 15.5 19H9.5C8.96957 19 8.46086 18.7893 8.08579 18.4142C7.71071 18.0391 7.5 17.5304 7.5 17V8H7C6.73478 8 6.48043 7.89464 6.29289 7.70711C6.10536 7.51957 6 7.26522 6 7V6C6 5.73478 6.10536 5.48043 6.29289 5.29289C6.48043 5.10536 6.73478 5 7 5H10.5C10.5 4.73478 10.6054 4.48043 10.7929 4.29289C10.9804 4.10536 11.2348 4 11.5 4H13.5C13.7652 4 14.0196 4.10536 14.2071 4.29289C14.3946 4.48043 14.5 4.73478 14.5 5H18C18.2652 5 18.5196 5.10536 18.7071 5.29289C18.8946 5.48043 19 5.73478 19 6V7ZM8.618 8L8.5 8.059V17C8.5 17.2652 8.60536 17.5196 8.79289 17.7071C8.98043 17.8946 9.23478 18 9.5 18H15.5C15.7652 18 16.0196 17.8946 16.2071 17.7071C16.3946 17.5196 16.5 17.2652 16.5 17V8.059L16.382 8H8.618ZM7 7V6H18V7H7Z" fill="white"/>
</svg>
